<svg xmlns="http://www.w3.org/2000/svg" viewBox="0 0 120 120" role="img" aria-label="Circulatory Vitality Core formulation icon">
  <circle cx="60" cy="60" r="55" fill="#f5f0e8" opacity="0.8"/>
  <circle cx="60" cy="60" r="55" fill="none" stroke="#b8962e" stroke-width="0.8" opacity="0.4"/>
  <!-- Heart shape -->
  <path d="M60 82 C60 82 35 65 35 50 C35 41 41 36 48 36 C53 36 57 39 60 43 C63 39 67 36 72 36 C79 36 85 41 85 50 C85 65 60 82 60 82Z" fill="#1a2744" opacity="0.12" stroke="#1a2744" stroke-width="1.5"/>
  <!-- Flow lines -->
  <path d="M50 55 Q60 48 70 55" fill="none" stroke="#b8962e" stroke-width="1.5" stroke-linecap="round"/>
  <path d="M47 62 Q60 53 73 62" fill="none" stroke="#b8962e" stroke-width="1.2" stroke-linecap="round" opacity="0.6"/>
  <!-- Pulse line at bottom -->
  <path d="M38 90 L48 90 L52 83 L56 97 L60 87 L64 93 L68 90 L82 90" fill="none" stroke="#b8962e" stroke-width="1.5" stroke-linecap="round" stroke-linejoin="round"/>
</svg>
