<svg xmlns="http://www.w3.org/2000/svg" viewBox="0 0 120 120" role="img" aria-label="Neuro Resilience Module formulation icon">
  <circle cx="60" cy="60" r="55" fill="#f5f0e8" opacity="0.8"/>
  <circle cx="60" cy="60" r="55" fill="none" stroke="#b8962e" stroke-width="0.8" opacity="0.4"/>
  <!-- Brain silhouette simplified -->
  <path d="M40 65 C36 60 36 52 42 48 C42 40 50 36 57 40 C60 37 66 37 68 41 C74 39 80 44 78 51 C83 55 83 63 78 67 C76 74 68 76 62 73 C58 76 52 76 48 72 C43 72 38 69 40 65Z" fill="none" stroke="#1a2744" stroke-width="1.5" opacity="0.7"/>
  <!-- Neural connections -->
  <line x1="55" y1="52" x2="65" y2="52" stroke="#b8962e" stroke-width="1" opacity="0.7"/>
  <line x1="52" y1="58" x2="68" y2="58" stroke="#b8962e" stroke-width="1" opacity="0.7"/>
  <line x1="55" y1="64" x2="65" y2="64" stroke="#b8962e" stroke-width="1" opacity="0.7"/>
  <!-- Nodes -->
  <circle cx="55" cy="52" r="2" fill="#b8962e"/>
  <circle cx="65" cy="52" r="2" fill="#b8962e"/>
  <circle cx="52" cy="58" r="2" fill="#1a2744" opacity="0.5"/>
  <circle cx="68" cy="58" r="2" fill="#1a2744" opacity="0.5"/>
  <circle cx="55" cy="64" r="2" fill="#b8962e" opacity="0.7"/>
  <circle cx="65" cy="64" r="2" fill="#b8962e" opacity="0.7"/>
  <circle cx="60" cy="58" r="3" fill="#b8962e"/>
</svg>
