<svg xmlns="http://www.w3.org/2000/svg" viewBox="0 0 200 180" fill="none">
  <!-- Background circle -->
  <circle cx="100" cy="90" r="75" fill="#0f1e3c" opacity="0.05"/>
  <!-- Mortar and pestle stylized -->
  <ellipse cx="100" cy="130" rx="45" ry="14" fill="#0f1e3c" opacity="0.1"/>
  <path d="M65 125 Q65 105 75 95 Q85 85 100 83 Q115 85 125 95 Q135 105 135 125" stroke="#0f1e3c" stroke-width="2" fill="#f8f3e8"/>
  <line x1="65" y1="125" x2="135" y2="125" stroke="#0f1e3c" stroke-width="2"/>
  <path d="M78 105 Q90 95 100 93 Q110 95 122 105" stroke="#b8860b" stroke-width="1.5" fill="none"/>
  <!-- Pestle -->
  <rect x="95" y="55" width="10" height="50" rx="5" fill="#b8860b" opacity="0.8"/>
  <ellipse cx="100" cy="55" rx="8" ry="5" fill="#b8860b"/>
  <!-- Botanical elements -->
  <path d="M55 80 Q45 60 55 45 Q60 38 65 45 Q55 60 65 75Z" fill="#b8860b" opacity="0.4"/>
  <path d="M145 80 Q155 60 145 45 Q140 38 135 45 Q145 60 135 75Z" fill="#b8860b" opacity="0.4"/>
  <!-- Scattered dots -->
  <circle cx="80" cy="115" r="3" fill="#b8860b" opacity="0.5"/>
  <circle cx="100" cy="110" r="2" fill="#b8860b" opacity="0.4"/>
  <circle cx="120" cy="115" r="3" fill="#b8860b" opacity="0.5"/>
  <!-- Label -->
  <text x="100" y="158" font-family="Georgia, serif" font-size="9" fill="#b8860b" text-anchor="middle" letter-spacing="2">FORMULATIONS</text>
</svg>
